Cover Image: 
http://img37.imageshack.us/img37/4968/khvku.jpg
General
Complete name : Loosies.2012.DVDRip.XviD-NoGRP.avi
Format : AVI
Format/Info : Audio Video Interleave
File size : 1.37 GiB
Duration : 1h 28mn
Overall bit rate : 2 214 Kbps
Writing library : VirtualDub build 32839/release


Video
ID : 0
Format : MPEG-4 Visual
Format profile : Advanced Simple@L5
Format settings, BVOP : 2
Format settings, QPel : No
Format settings, GMC : No warppoints
Format settings, Matrix : Default (MPEG)
Muxing mode : Packed bitstream
Codec ID : XVID
Codec ID/Hint : XviD
Duration : 1h 28mn
Bit rate : 2 073 Kbps
Width : 720 pixels
Height : 400 pixels
Display aspect ratio : 16:9
Frame rate : 25.000 fps
Color space : YUV
Chroma subsampling : 4:2:0
Bit depth : 8 bits
Scan type : Progressive
Compression mode : Lossy
Bits/(Pixel*Frame) : 0.288
Stream size : 1.29 GiB (94%)
Writing library : XviD 64


Audio
ID : 1
Format : MPEG Audio
Format version : Version 1
Format profile : Layer 3
Codec ID : 55
Codec ID/Hint : MP3
Duration : 1h 28mn
Bit rate mode : Constant
Bit rate : 128 Kbps
Channel(s) : 2 channels
Sampling rate : 44.1 KHz
Compression mode : Lossy
Stream size : 81.3 MiB (6%)
Alignment : Aligned on interleaves
Interleave, duration : 26 ms (0.65 video frame)
Interleave, preload duration : 522 ms
 
http://www.imdb.com/title/tt1568337/
Not yet released
(voting begins after release)

A young pickpocket in the New York subways, living a fast, free, lifestyle is confronted by a woman whom he had a one night affair with... See full summary »
Director:
Michael Corrente
Writers:
Peter Facinelli (screenplay), Peter Facinelli (story)
Stars:
Peter Facinelli, Jaimie Alexander and Michael Madsen

Screens: 
http://img831.imageshack.us/img831/9271/vlcsnap2011112418h37m31.png 
http://img443.imageshack.us/img443/1006/vlcsnap2011112418h37m46vg.png 
http://img850.imageshack.us/img850/1417/vlcsnap2011112418h39m03.png
